<svg width="8" height="14" viewBox="0 0 8 14" fill="none" xmlns="http://www.w3.org/2000/svg">
<path d="M0.628132 0.409367C0.759968 0.277695 0.938679 0.203735 1.12501 0.203735C1.31134 0.203735 1.49005 0.277695 1.62188 0.409367L7.71563 6.50312C7.84731 6.63495 7.92126 6.81366 7.92126 6.99999C7.92126 7.18632 7.84731 7.36503 7.71563 7.49687L1.62188 13.5906C1.48859 13.7148 1.3123 13.7824 1.13014 13.7792C0.947986 13.776 0.774188 13.7022 0.645363 13.5734C0.516538 13.4446 0.442746 13.2708 0.439532 13.0886C0.436318 12.9064 0.503932 12.7302 0.628132 12.5969L6.22501 6.99999L0.628132 1.40312C0.49646 1.27128 0.422502 1.09257 0.422502 0.906242C0.422502 0.719913 0.49646 0.541203 0.628132 0.409367Z" fill="#FF8A00"/>
</svg>
