<svg width="48" height="56" viewBox="0 0 48 56" fill="none" xmlns="http://www.w3.org/2000/svg">
<path d="M16.3007 1.03515C14.7069 1.58593 13.4413 3.06249 13.0429 4.84374C12.9491 5.23046 12.4804 6.49609 11.9765 7.64452L11.0741 9.71874L6.0585 14.5234C1.746 18.6601 1.00772 19.4219 0.714751 19.9961L0.386626 20.6758L0.351469 35.2656C0.328032 44.2656 0.363188 50.1367 0.433501 50.5937C0.632719 51.9062 1.30069 52.832 2.42569 53.3945C2.82413 53.5937 3.39834 53.6055 10.8749 53.6406L18.9023 53.6641L19.3124 54.0742C20.203 54.9297 21.7148 55.375 22.7929 55.082C23.0624 55.0117 24.8554 54.2734 26.7773 53.4414C28.6991 52.6094 33.7148 50.4414 37.9335 48.625C42.1523 46.8203 45.8202 45.1797 46.078 44.9922C47.3202 44.1484 47.9062 42.25 47.3905 40.7851C46.9101 39.4375 34.8163 11.582 34.5233 11.1484C34.3241 10.8672 33.9374 10.4805 33.6444 10.3047C33.3515 10.1172 30.7499 9.08593 27.8554 8.0078C23.9882 6.5664 22.5937 5.99218 22.5937 5.86327C22.5937 5.55859 21.8554 3.96484 21.4335 3.33202C20.5898 2.08984 19.6523 1.33984 18.5038 0.999992C17.6835 0.753899 17.0624 0.765617 16.3007 1.03515ZM18.621 2.58202C19.1601 2.85155 20.0976 3.87109 20.5194 4.66796C20.7069 5.0078 20.8358 5.30077 20.8124 5.32421C20.789 5.34765 19.9218 5.05468 18.9023 4.66796C16.9335 3.91796 16.0546 3.74218 15.2929 3.95312C14.8124 4.09374 14.8124 4.0703 15.2929 3.42577C15.6093 3.0039 16.4413 2.46484 17.0038 2.33593C17.4843 2.21874 18.0819 2.31249 18.621 2.58202ZM19.0077 6.23827C20.5312 6.80077 21.3749 7.17577 21.4687 7.32812C21.6913 7.71484 21.6327 11.5 21.3866 12.4844L21.1757 13.3047H20.1562C19.2655 13.293 19.0546 13.3398 18.4687 13.6211C17.6835 14.0078 17.1562 14.5586 16.7577 15.4375C16.5116 15.9883 16.4765 16.1992 16.5233 16.9726C16.6054 18.3906 17.2148 19.3281 18.4569 19.9375C19.0898 20.2539 19.3593 20.3125 20.0155 20.3125C21.9491 20.3125 23.5312 18.7422 23.5312 16.832C23.5312 16 23.3671 15.4609 22.8749 14.7461L22.4648 14.125L22.7226 13.0937C22.8632 12.5312 23.0155 12.0625 23.0507 12.0625C23.0858 12.0625 23.953 12.3789 24.9843 12.7656C26.0038 13.1523 26.953 13.4687 27.0937 13.4687C27.4218 13.4687 27.703 13.2461 27.7968 12.918C27.9374 12.4375 27.4569 12.1328 25.4062 11.3711C24.3398 10.9726 23.4023 10.6562 23.3319 10.6562C23.2265 10.6562 23.1796 10.4453 23.1796 9.97655C23.1796 9.61327 23.1444 8.95702 23.1093 8.52343L23.0273 7.74999L27.8202 9.53124C31.7226 10.9961 32.6952 11.3945 33.0468 11.7226C33.4569 12.0859 34.078 13.4805 39.7851 26.7109C43.4179 35.1601 46.0898 41.5 46.1249 41.7812C46.2304 42.6953 45.7148 43.6211 44.871 44.043C44.6366 44.1601 39.5155 46.3867 33.4921 48.9883C23.789 53.1601 22.4648 53.7109 21.9491 53.6992C21.0468 53.6992 20.2616 53.1836 19.8632 52.3398C19.7577 52.1289 16.9335 45.5781 13.5585 37.7851C8.14444 25.2344 7.44131 23.5234 7.39444 22.9023C7.35928 22.2109 7.38272 22.1172 10.6874 14.3476C14.2382 5.98046 14.3437 5.76952 15.2694 5.42968C15.9608 5.18359 16.4413 5.28905 19.0077 6.23827ZM7.82803 17.4297C5.89444 21.9883 5.71866 22.5742 5.99991 23.6406C6.09366 24.0039 8.84756 30.5078 12.1171 38.0781C15.3749 45.6484 18.0819 51.9414 18.1054 52.0469C18.164 52.2461 17.7655 52.2578 10.8398 52.2578C5.94131 52.2578 3.39834 52.2109 3.17569 52.1289C2.73038 51.9648 2.20303 51.4609 2.01553 51.0039C1.87491 50.6875 1.85147 48.1328 1.85147 35.8164V21.0039L2.121 20.5234C2.27334 20.2305 3.8085 18.6836 5.95303 16.6445C7.91006 14.7695 9.52725 13.2578 9.55069 13.2695C9.56241 13.293 8.78897 15.1562 7.82803 17.4297ZM20.3554 14.7461C20.5663 14.8867 20.3788 15.2266 19.6171 16.0234C19.0663 16.6094 18.328 17.1016 18.0116 17.1016C17.789 17.1016 17.9882 16.0586 18.2812 15.625C18.7499 14.9453 19.8983 14.4531 20.3554 14.7461ZM22.078 16.5273C22.1718 17.2305 21.8437 18.0039 21.2343 18.4609C20.8593 18.7539 20.6952 18.8008 20.0273 18.8008C19.4999 18.8008 19.1718 18.7422 18.9843 18.6133L18.7148 18.4141L19.2421 18.1562C19.9452 17.8281 20.8593 16.9961 21.328 16.2695C21.6327 15.7891 21.7265 15.7187 21.8554 15.8359C21.9374 15.9297 22.0429 16.2344 22.078 16.5273Z" fill="#FF8A00"/>
<path d="M16.8164 8.69922C15.293 9.17969 14.5664 11.2422 15.9258 11.2422C16.1953 11.2422 16.3242 11.1602 16.4766 10.8672C16.957 9.97656 17.3086 9.89453 18.5625 10.3633C19.2305 10.6211 19.3828 10.6328 19.6523 10.5039C19.8867 10.3984 19.9688 10.2578 19.9922 9.92969C20.0391 9.40234 19.875 9.27344 18.5859 8.85156C17.5898 8.51172 17.4609 8.5 16.8164 8.69922Z" fill="#FF8A00"/>
<path d="M13.9568 13.7266C13.7811 13.8086 13.4881 14.3594 12.9725 15.5664C11.8357 18.2617 11.8475 18.2031 12.0818 18.5547C12.3279 18.918 12.8553 18.9648 13.1365 18.6484C13.3826 18.3789 14.9764 14.6172 14.9764 14.3242C14.9764 14.043 14.8592 13.8906 14.5428 13.7148C14.2498 13.5625 14.285 13.5625 13.9568 13.7266Z" fill="#FF8A00"/>
<path d="M30.3279 14.0195C30.1873 14.1953 30.1053 14.418 30.1404 14.5234C30.1639 14.6172 30.5858 15.5898 31.0662 16.6914C31.7694 18.3203 31.992 18.7187 32.2615 18.8477C32.5428 18.9883 32.6131 18.9766 32.8944 18.7773C33.0584 18.6484 33.2108 18.4375 33.2342 18.3086C33.2811 18.0039 31.699 14.3242 31.3592 13.9727C31.0194 13.6094 30.6326 13.6328 30.3279 14.0195Z" fill="#FF8A00"/>
<path d="M10.7812 21.332C10.4297 21.4609 10.1719 22.1055 10.1719 22.8086C10.1719 23.2187 10.3477 23.7695 10.8047 24.8359C11.4844 26.4648 11.7656 26.7578 12.3281 26.5C12.8672 26.2539 12.8437 25.8906 12.1641 24.332C11.5664 22.9492 11.5547 22.8906 11.6836 22.3867C11.8008 21.9648 11.7891 21.8242 11.6484 21.6133C11.4375 21.2969 11.1328 21.2031 10.7812 21.332Z" fill="#FF8A00"/>
<path d="M33.6797 21.5078C33.5742 21.6016 33.4922 21.8242 33.4922 21.9766C33.4922 22.2695 35.0391 26.043 35.2852 26.3359C35.3555 26.4297 35.5781 26.4766 35.8242 26.4531C36.1289 26.4297 36.2812 26.3359 36.4102 26.1016C36.5859 25.8086 36.5508 25.7031 35.7305 23.793C35.25 22.6914 34.793 21.6836 34.6992 21.5547C34.5 21.2734 33.9375 21.2383 33.6797 21.5078Z" fill="#FF8A00"/>
<path d="M25.0781 25.2461C22.3359 25.8437 19.8984 28.2344 19.2539 30.9531C19.0312 31.9023 19.0312 33.707 19.2539 34.6562C19.7578 36.7656 21.375 38.7695 23.3555 39.7187C26.4023 41.1836 29.8125 40.6094 32.2148 38.207C33.1875 37.2344 33.9141 35.957 34.2539 34.6211C34.4766 33.7304 34.4766 31.8789 34.2539 30.9883C33.7031 28.832 32.1094 26.8281 30.1992 25.914C28.5586 25.1172 26.7422 24.8828 25.0781 25.2461ZM28.4531 26.7812C31.2188 27.5547 33.1758 30.3086 32.9883 33.1562C32.7656 36.5312 30.0586 39.0625 26.6953 39.0508C24.9492 39.039 23.5898 38.4765 22.3594 37.2578C19.125 34.0469 20.2266 28.6211 24.457 26.9453C25.6992 26.4648 27.082 26.4062 28.4531 26.7812Z" fill="#FF8A00"/>
<path d="M27.4219 29.4414C25.9688 29.9922 25.3711 31.5508 26.0508 33.0156C26.4141 33.8125 26.4141 33.9883 26.0391 34.4336C25.793 34.7266 25.6524 34.7969 25.2774 34.7969C24.2813 34.7969 23.8945 33.7891 24.5859 33.0039C24.9727 32.5586 25.043 32.1016 24.75 31.8203C24.0117 31.0703 22.5703 32.7461 22.7813 34.0937C22.8399 34.4805 22.8164 34.5508 22.4883 34.7851C22.0899 35.0664 21.9961 35.5351 22.2774 35.875C22.5117 36.168 22.7813 36.2031 23.2383 35.9687C23.6602 35.7461 23.6719 35.7461 24.1524 36.0039C25.8399 36.8828 27.8789 35.5 27.7149 33.6016C27.6797 33.2148 27.5508 32.7578 27.4102 32.5351C26.9766 31.8203 27.1641 31.0703 27.832 30.8476C28.3594 30.6719 28.8985 30.8711 29.1211 31.3281C29.3555 31.8203 29.2617 32.1836 28.8047 32.6641C28.3945 33.0976 28.3594 33.4141 28.6875 33.7422C29.0508 34.1055 29.4492 34.0351 29.9531 33.5312C30.457 33.0273 30.7383 32.2422 30.6563 31.5508C30.6094 31.1641 30.6563 31.0586 30.9961 30.7422C31.4531 30.3086 31.4766 30.0742 31.0899 29.6992C30.75 29.3476 30.6094 29.3359 30.1641 29.6289C29.836 29.8516 29.8242 29.8516 29.3906 29.6289C28.8399 29.3359 27.9258 29.2539 27.4219 29.4414Z" fill="#FF8A00"/>
<path d="M13.1718 29.125C12.8554 29.4414 12.9609 29.8867 13.8398 31.9375C14.5429 33.5664 14.7538 33.9414 15.0234 34.0703C15.2929 34.2109 15.3867 34.1992 15.621 34.0469C15.7851 33.9414 15.9374 33.7422 15.9726 33.5898C16.0546 33.2852 14.3788 29.3125 14.0742 29.0781C13.8046 28.8789 13.3945 28.9023 13.1718 29.125Z" fill="#FF8A00"/>
<path d="M36.8906 29.1133C36.8086 29.207 36.75 29.4062 36.75 29.5586C36.75 29.9219 38.3906 33.7656 38.625 33.9531C38.9414 34.1992 39.4922 34.082 39.6914 33.7305C39.8555 33.4375 39.8203 33.3203 39.0117 31.4453C38.543 30.3555 38.0859 29.3477 37.9922 29.1953C37.793 28.8906 37.125 28.832 36.8906 29.1133Z" fill="#FF8A00"/>
<path d="M40.2305 36.7305C40.0664 36.8828 39.9375 37.0703 39.9375 37.1406C39.9375 37.2109 40.2539 37.9961 40.6406 38.8867C41.1914 40.1523 41.332 40.5859 41.2734 40.8672C41.2148 41.1484 41.2617 41.2891 41.4961 41.5234C41.8594 41.8867 42.0469 41.8984 42.3984 41.6172C42.5859 41.4648 42.6797 41.2422 42.7148 40.8086C42.7734 40.2812 42.7031 40.0352 42.0469 38.5C41.168 36.4141 40.8398 36.1094 40.2305 36.7305Z" fill="#FF8A00"/>
<path d="M16.5233 36.6367C16.4413 36.6719 16.3124 36.8242 16.2538 36.9883C16.1718 37.2226 16.3007 37.6211 16.9804 39.2266C18.0468 41.7344 18.0468 41.7344 18.5858 41.6875C18.9022 41.6641 19.0546 41.5703 19.1835 41.3476C19.3358 41.0664 19.3007 40.9258 18.5038 39.0625C18.0351 37.9726 17.578 36.9648 17.4843 36.8125C17.3202 36.5664 16.8983 36.4844 16.5233 36.6367Z" fill="#FF8A00"/>
<path d="M36.5391 43.293C35.4258 43.7734 34.418 44.2422 34.3008 44.3594C34.1836 44.4648 34.0781 44.6875 34.0781 44.8398C34.0781 45.1445 34.4531 45.5781 34.7227 45.5781C34.8164 45.5781 35.8008 45.1914 36.9141 44.7109C39.1875 43.7383 39.5391 43.457 39.2344 42.918C38.9062 42.3438 38.707 42.3672 36.5391 43.293Z" fill="#FF8A00"/>
<path d="M19.9218 44.1836C19.7812 44.2422 19.6054 44.4062 19.5351 44.5586C19.4179 44.8047 19.5351 45.1445 20.3554 47.0547C21.4452 49.5742 21.7148 49.9375 22.6991 50.2187C23.4257 50.4414 23.8007 50.3359 24.0234 49.8672C24.1874 49.4805 23.9062 49.0117 23.4374 48.9062C22.6874 48.7539 22.6523 48.707 21.7265 46.5273C21.2226 45.3672 20.7538 44.3711 20.6718 44.3125C20.4374 44.125 20.1913 44.0898 19.9218 44.1836Z" fill="#FF8A00"/>
<path d="M28.9336 46.5742C26.7656 47.5 26.4609 47.6875 26.4609 48.1094C26.4609 48.3555 26.9414 48.8594 27.1758 48.8594C27.4219 48.8594 31.2305 47.1602 31.4766 46.9492C31.6172 46.8203 31.7344 46.6094 31.7344 46.4922C31.7344 46.2695 31.2422 45.6953 31.0664 45.6953C31.0195 45.6953 30.0586 46.0938 28.9336 46.5742Z" fill="#FF8A00"/>
</svg>
