<svg width="58" height="58" viewBox="0 0 58 58" fill="none" xmlns="http://www.w3.org/2000/svg">
<path opacity="0.937" fill-rule="evenodd" clip-rule="evenodd" d="M31.6368 0.464852C35.1841 0.420251 38.5045 1.26009 41.5978 2.98438C43.5915 4.25453 45.5447 5.58266 47.4572 6.96876C52.0414 10.9206 55.2641 15.7838 57.1251 21.5586C57.6627 23.8016 57.7798 26.0673 57.4767 28.3555C56.574 36.8209 53.0388 43.9497 46.8712 49.7422C42.6615 52.7359 38.0522 54.9234 33.0431 56.3047C29.521 57.1875 25.9859 57.2851 22.4376 56.5977C21.877 56.7028 21.3106 56.6833 20.7384 56.5391C16.8164 55.5163 13.3788 53.6413 10.4259 50.9141C10.0707 50.6142 9.81675 50.2431 9.66418 49.8008C6.2465 46.9543 3.74651 43.4387 2.16418 39.2539C-0.849996 29.1295 0.985944 19.9889 7.67199 11.832C12.6673 6.50979 18.7416 2.97463 25.8947 1.22657C27.8049 0.807251 29.7191 0.55334 31.6368 0.464852ZM30.9337 2.10548C36.7885 1.97765 41.6908 4.04797 45.6407 8.31641C49.139 12.0725 51.0726 16.5256 51.4415 21.6758C51.151 30.867 47.6744 38.582 41.0118 44.8203C36.3862 48.0309 31.3081 50.2183 25.7775 51.3828C23.0389 51.8493 20.324 51.7517 17.6329 51.0899C16.5711 51.2028 15.536 51.0661 14.5275 50.6797C12.264 49.7534 10.2913 48.4058 8.60949 46.6367C2.09761 39.0911 0.57417 30.6146 4.03918 21.207C6.65987 14.563 11.1325 9.58247 17.4572 6.26563C21.6706 3.91672 26.1629 2.53 30.9337 2.10548ZM51.2072 13.5899C53.3744 16.2842 54.8588 19.3311 55.6603 22.7305C55.1723 22.34 54.7426 21.8908 54.3712 21.3828C53.955 21.0056 53.5058 20.6736 53.0236 20.3867C52.7633 18.0247 52.1579 15.7591 51.2072 13.5899ZM31.0509 15.3477C31.2058 15.3277 31.3426 15.3668 31.4611 15.4649C31.664 15.9175 31.8204 16.3863 31.9298 16.8711C32.2191 17.7964 32.8441 18.3043 33.8048 18.3945C34.3263 18.249 34.8536 18.1904 35.3868 18.2188C35.9664 18.4193 36.279 18.8294 36.3243 19.4492C36.1256 20.6089 35.5787 21.5659 34.6837 22.3203C33.0337 22.9615 31.3931 23.6256 29.7618 24.3125C28.9912 24.6888 28.6202 25.2942 28.6486 26.1289C28.8122 26.5138 29.1051 26.7091 29.5275 26.7148C31.2294 26.2517 32.9481 25.8611 34.6837 25.543C35.0711 25.6207 35.4617 25.6793 35.8556 25.7188C37.1086 26.0173 37.5187 26.7791 37.0861 28.0039C36.3032 28.7475 35.4829 29.4506 34.6251 30.1133C34.2425 30.8382 34.1449 31.5999 34.3322 32.3984C34.2966 33.0988 33.9451 33.5675 33.2775 33.8047C32.4351 34.2685 31.6734 34.1709 30.9923 33.5117C30.64 32.1034 30.1713 30.7361 29.5861 29.4102C29.049 28.606 28.3459 28.3716 27.4767 28.707C27.1953 28.5779 26.9023 28.5583 26.5978 28.6484C26.3424 28.9427 26.0495 29.1966 25.7189 29.4102C24.9472 31.0613 24.2441 32.741 23.6095 34.4492C22.8318 35.8041 21.6794 36.6245 20.1525 36.9102C19.7108 36.9034 19.3398 36.747 19.0392 36.4414C19.0002 35.7773 18.961 35.1133 18.922 34.4492C18.84 34.0313 18.6252 33.6992 18.2775 33.4531C17.6853 33.2366 17.0994 33.0022 16.5197 32.75C15.6574 31.9416 15.5988 31.0627 16.3439 30.1133C17.2855 28.9641 18.5159 28.3977 20.0353 28.4141C21.2859 28.345 22.5358 28.267 23.7853 28.1797C24.7964 27.5113 24.8744 26.73 24.0197 25.8359C23.6335 25.5507 23.2038 25.3554 22.7306 25.25C21.4448 25.1232 20.1557 25.045 18.8634 25.0156C18.3427 24.9538 17.8348 24.8366 17.34 24.6641C16.7695 24.2478 16.6718 23.7596 17.047 23.1992C17.9022 22.4011 18.8007 21.6589 19.7423 20.9727C19.8917 20.7129 20.0089 20.4393 20.0939 20.1523C20.1509 19.4079 20.229 18.6657 20.3282 17.9258C21.1848 17.05 22.1028 16.9915 23.0822 17.75C24.0789 18.7863 24.7235 20.0168 25.0157 21.4414C25.3147 22.6891 25.5881 23.939 25.8361 25.1914C26.7965 25.6104 27.4997 25.337 27.9454 24.3711C28.0532 24.0663 28.1314 23.7538 28.1798 23.4336C28.2188 21.8711 28.258 20.3086 28.297 18.7461C28.599 17.0981 29.5169 15.9652 31.0509 15.3477ZM52.965 22.4961C53.9675 23.446 54.944 24.4227 55.8947 25.4258C55.9951 26.6022 55.9365 27.7741 55.7189 28.9414C54.7423 28.0039 53.7657 27.0664 52.7892 26.1289C52.8784 24.9231 52.937 23.7122 52.965 22.4961ZM52.379 28.0039C53.2416 29.0226 54.2182 29.9211 55.3087 30.6992C55.4431 30.9647 55.4627 31.2381 55.3673 31.5195C55.1027 32.7042 54.7902 33.8761 54.4298 35.0352C53.3088 34.0704 52.2736 33.0352 51.3243 31.9297C51.7586 30.6413 52.1102 29.3328 52.379 28.0039ZM50.6212 33.7461C51.6634 34.7691 52.718 35.7652 53.7853 36.7344C53.3484 37.94 52.8016 39.0924 52.1447 40.1914C50.9323 39.4683 49.8386 38.5893 48.8634 37.5547C49.562 36.3335 50.1479 35.064 50.6212 33.7461ZM47.9259 39.0195C48.9911 40.0016 50.124 40.9 51.3243 41.7149C50.7475 42.7202 50.0834 43.6577 49.3322 44.5274C48.2355 43.6254 47.1418 42.727 46.0509 41.832C46.7946 40.9685 47.4197 40.031 47.9259 39.0195ZM44.879 43.2383C46.0912 43.9995 47.2241 44.8784 48.2775 45.875C47.4376 46.8711 46.5197 47.789 45.5236 48.6289C45.255 48.4777 45.0206 48.2824 44.8204 48.043C44.1759 47.1641 43.5314 46.2852 42.8868 45.4063C43.6182 44.734 44.2823 44.0114 44.879 43.2383ZM41.3634 46.5195C41.5183 46.4996 41.6551 46.5386 41.7736 46.6367C42.4454 47.6995 43.2071 48.6956 44.0587 49.625C43.2772 50.1723 42.4569 50.6606 41.5978 51.0899C40.4575 50.3213 39.4029 49.4424 38.4337 48.4531C39.0785 48.033 39.7426 47.6423 40.4259 47.2813C40.7681 47.0532 41.0806 46.7993 41.3634 46.5195ZM36.7931 49.2149C37.7539 50.1952 38.7695 51.1132 39.84 51.9688C38.7216 52.4913 37.5888 52.9795 36.4415 53.4336C35.4826 52.5724 34.5841 51.6543 33.7462 50.6797C34.7868 50.2179 35.8024 49.7295 36.7931 49.2149ZM31.8712 51.3242C32.8154 52.2096 33.7529 53.1275 34.6837 54.0781C33.5783 54.4994 32.4454 54.7728 31.2853 54.8984C30.3315 54.1596 29.4331 53.3587 28.59 52.4961C29.72 52.1717 30.8137 51.7811 31.8712 51.3242ZM15.8165 52.8477C15.8654 52.7745 15.9436 52.7355 16.0509 52.7305C17.6952 52.8952 19.3358 53.0906 20.9728 53.3164C20.9591 53.5489 21.0372 53.7441 21.2072 53.9024C21.5805 54.2564 21.9712 54.5884 22.379 54.8984C21.2016 54.9853 20.0688 54.7899 18.9806 54.3125C17.8941 53.8794 16.8395 53.3912 15.8165 52.8477ZM25.7775 52.9649C26.3219 53.0752 26.8298 53.2902 27.3009 53.6094C27.9221 54.1133 28.508 54.6601 29.0587 55.25C28.2969 55.4083 27.5157 55.5059 26.715 55.543C26.1624 55.5463 25.6547 55.4095 25.1915 55.1328C24.5055 54.5744 23.8414 53.9885 23.1993 53.375C24.0772 53.2554 24.9366 53.1187 25.7775 52.9649Z" fill="#FF8A00"/>
</svg>
