<svg width="60" height="60" viewBox="0 0 60 60" fill="none" xmlns="http://www.w3.org/2000/svg">
<path d="M24.9961 8.57812C7.64067 25.3008 7.14848 25.7812 7.14848 26.0625C7.14848 26.5195 7.58207 26.9531 8.02739 26.9531C8.36723 26.9531 8.64848 26.7188 10.4532 24.9844C11.5782 23.9062 12.6211 22.9102 12.7852 22.7695L13.0664 22.5117V23.8828C13.0664 26.0742 13.6641 27.5039 14.8477 28.207C15.4102 28.5352 15.4219 28.5352 17.9649 28.5938L20.5196 28.6523L19.4883 29.5312C18.1407 30.6914 16.9688 32.0625 15.7032 33.9609C14.4493 35.8359 14.2969 36.2227 14.6133 36.668C14.7657 36.8555 14.9766 36.9844 15.211 37.0078C15.4219 37.0312 16.8282 36.7734 18.3399 36.4336C19.9922 36.0703 21.1407 35.8594 21.1993 35.9297C21.2461 35.9883 21.5977 36.9023 21.961 37.9688C22.6641 39.9727 22.875 40.3125 23.4258 40.3125C24 40.3125 24.1407 40.0781 24.6094 38.3789C24.8555 37.4766 25.1133 36.6094 25.1836 36.4453C25.2657 36.2461 25.3008 38.5898 25.3008 44.0039L25.3125 51.8672L24.4922 52.6758L23.6836 53.4844L23.4141 53.25C23.1563 53.0273 18.9141 48.9961 7.76957 38.4023L2.12114 33.0234L3.99614 31.1953C5.25004 29.9531 5.85942 29.2734 5.85942 29.1094C5.85942 28.6758 5.4141 28.2422 4.98051 28.2422C4.62895 28.2422 4.3477 28.4648 2.43754 30.3047C1.25395 31.4414 0.222699 32.4844 0.128949 32.6367C0.0351988 32.7891 4.25428e-05 33.0117 0.0469175 33.1992C0.0937925 33.3984 3.69145 36.9023 10.7579 43.6172C16.6055 49.1719 21.8204 54.1289 22.3477 54.6328C23.0743 55.3242 23.3789 55.5469 23.6368 55.5469C23.9063 55.5469 24.7735 54.7383 29.086 50.4258L34.2188 45.293V52.0664V58.8398L34.5118 59.1211L34.793 59.4141H47.1094H59.4258L59.7071 59.1211C59.9883 58.8516 60 58.793 60 57.0703C60 55.4648 59.9766 55.2891 59.7657 55.0781C59.5313 54.8438 58.8985 54.7617 58.6407 54.9375C58.3477 55.125 58.2422 55.582 58.2422 56.5898V57.6562H54.5508H50.8594V53.4375V49.2188H54.5391H58.2188L58.2657 50.6367C58.3008 51.9609 58.3243 52.0664 58.5821 52.2773C58.9571 52.582 59.3672 52.5586 59.7071 52.207L60 51.9258V41.9766V32.0273L59.7305 31.7812C59.461 31.5234 59.4493 31.5234 53.7891 31.5234H48.1055L52.125 27.5039C55.8399 23.7773 56.1329 23.4609 56.1329 23.0859C56.1329 22.6992 55.4649 22.0195 45.0821 11.6367C34.9805 1.52344 34.0079 0.585938 33.668 0.585938C33.3165 0.585938 32.4844 1.34766 24.9961 8.57812ZM43.8868 12.8906L54.0821 23.0859L48.1641 29.0039C44.9063 32.2617 42.2227 34.9219 42.1875 34.9219C42.1524 34.9219 41.9532 34.6289 41.7422 34.2773C40.7344 32.6133 38.9297 30.5039 37.4649 29.2852L36.7852 28.7109H39.0586C41.6719 28.7109 42.129 28.6055 42.879 27.8906C43.7579 27.0352 44.1797 25.7695 44.1797 23.9531C44.1797 21.3984 43.0899 19.3008 41.543 18.8672C40.5 18.5742 37.9571 18.9844 36.1055 19.7461C35.004 20.2031 33.6915 20.8828 32.754 21.4922L31.9336 22.0195L31.8985 13.207L31.875 4.40625L32.7188 3.55078C33.1875 3.08203 33.5977 2.69531 33.6329 2.69531C33.668 2.69531 38.2852 7.27734 43.8868 12.8906ZM30.211 13.8984L30.1758 21.5742L28.6172 21.5977L27.0704 21.6211V15.4102V9.19922L28.5586 7.71094C29.379 6.87891 30.0938 6.21094 30.1407 6.21094C30.1993 6.21094 30.2227 9.66797 30.211 13.8984ZM25.3125 16.3477C25.3125 19.4062 25.2891 21.9141 25.254 21.9141C25.2305 21.9141 24.8438 21.6797 24.4102 21.3984C22.1954 19.9688 18.9961 18.75 17.4493 18.75C17.25 18.75 17.1094 18.7031 17.1329 18.6328C17.1797 18.4805 25.1133 10.8047 25.2305 10.793C25.2774 10.7812 25.3125 13.2891 25.3125 16.3477ZM17.9649 20.5664C19.1719 20.7773 20.3321 21.1758 21.7383 21.8789C22.9688 22.5 24.7149 23.6016 24.7852 23.8125C24.8086 23.8945 24.8438 24.5977 24.8672 25.3828L24.9024 26.8008L20.5664 26.8711C15.5508 26.9531 15.6329 26.9648 15.1172 25.957C14.8477 25.4297 14.8243 25.2539 14.8243 23.9062C14.836 22.2422 15.0586 21.4336 15.7149 20.7656C16.1485 20.3203 16.4414 20.2969 17.9649 20.5664ZM41.5196 20.8242C42.5157 21.8789 42.8086 24.6797 42.0704 26.1328C41.6368 26.9883 41.8243 26.9531 36.8321 26.9531H32.3438L32.4258 26.625C32.4844 26.4492 32.5196 25.7227 32.5079 25.0078V23.707L33.504 23.0625C35.9883 21.457 38.4961 20.543 40.4415 20.5195C41.1329 20.5078 41.2383 20.543 41.5196 20.8242ZM30.4454 23.5078C30.6915 23.6719 30.7032 23.7773 30.7032 25.043C30.7032 26.8945 30.7735 26.8359 28.7227 26.8359C26.5547 26.8359 26.6016 26.8828 26.6016 25.125C26.6016 23.2969 26.5665 23.3203 28.629 23.3203C29.8477 23.3203 30.2344 23.3555 30.4454 23.5078ZM26.5313 29.2031C25.6641 30.5273 24.5157 33 23.7774 35.1562C23.5782 35.7656 23.3672 36.3164 23.3204 36.3633C23.2735 36.4219 23.1094 36.1055 22.9688 35.6602C22.6641 34.7461 22.4063 34.1953 22.2188 34.0781C21.9727 33.9023 21.3399 33.9844 19.2774 34.4531C18.1289 34.7109 17.168 34.9102 17.1563 34.8867C17.1329 34.875 17.4727 34.3828 17.8946 33.8086C19.3477 31.8398 21.1289 30.3047 23.3438 29.1211L24.3165 28.5938H25.629H26.9415L26.5313 29.2031ZM34.254 29.2148C35.4961 29.8477 36.3633 30.5273 37.629 31.8281C38.5547 32.7773 40.0782 34.6992 40.0782 34.9102C40.0782 34.957 39.0938 34.7695 37.8868 34.4883C36.668 34.2188 35.5782 33.9844 35.4375 33.9844C35.086 33.9844 34.7579 34.4062 34.4532 35.2734C34.3008 35.6953 34.125 36.1641 34.0665 36.3281C33.9727 36.5859 33.9024 36.4453 33.4571 35.1445C32.6485 32.7539 31.6055 30.4805 30.6563 29.0273L30.4454 28.7109H31.8516H33.2696L34.254 29.2148ZM29.6133 30.6445L30.1641 31.582L30.1407 39.3164L30.1055 47.0508L28.5821 48.5742L27.0704 50.0977V40.9102V31.7227L27.4336 31.0664C27.6446 30.7031 27.9961 30.1289 28.2188 29.7773L28.629 29.1562L28.8399 29.4258C28.9571 29.5781 29.2969 30.1289 29.6133 30.6445ZM49.1016 37.4414V41.7188H47.1094H45.1172V38.1211V34.5234L45.7852 33.8438L46.4532 33.1641H47.7774H49.1016V37.4414ZM58.2422 37.4414V41.7188H54.5508H50.8594V37.4414V33.1641H54.5508H58.2422V37.4414ZM38.4375 36.3984C39.4219 36.6211 40.254 36.8203 40.2774 36.832C40.2891 36.8555 38.4375 38.7305 36.1524 41.0156C33.8672 43.3008 31.9688 45.1406 31.9336 45.1055C31.8985 45.0703 31.8868 43.0078 31.8985 40.5352L31.9336 36.0352L32.1915 36.8555C32.3321 37.3008 32.5782 38.168 32.7422 38.7773C32.9063 39.375 33.129 39.9727 33.2344 40.0898C33.4688 40.3477 34.0782 40.3828 34.3711 40.1602C34.4766 40.0898 34.8516 39.2227 35.2032 38.2617C36.1524 35.6484 36.0586 35.8477 36.3516 35.918C36.504 35.9531 37.4415 36.1641 38.4375 36.3984ZM43.3594 39.0234V41.7188H40.6407H37.9102L40.6055 39.0234C42.0821 37.5352 43.3125 36.3281 43.3243 36.3281C43.3477 36.3281 43.3594 37.5352 43.3594 39.0234ZM58.2422 45.4688V47.4609H47.1094H35.9766V45.4688V43.4766H47.1094H58.2422V45.4688ZM43.3594 53.4375V57.6562H39.668H35.9766V53.4375V49.2188H39.668H43.3594V53.4375ZM49.1016 53.4375V57.6562H47.1094H45.1172V53.4375V49.2188H47.1094H49.1016V53.4375Z" fill="#FF8A00"/>
</svg>
