<svg width="25" height="25" viewBox="0 0 25 25" fill="none" xmlns="http://www.w3.org/2000/svg">
<path d="M7.10947 3.80859C6.58701 3.96973 6.20615 4.55078 6.26474 5.10254C6.30869 5.53711 6.56259 5.9082 6.9581 6.11816L7.15341 6.22559H15.6251H24.0968L24.2921 6.11816C24.7413 5.87891 24.9708 5.49805 24.9757 5.00488C24.9757 4.50684 24.7413 4.11133 24.3018 3.87207C24.1554 3.78906 23.672 3.78418 15.6983 3.77441C11.0499 3.76953 7.18759 3.78418 7.10947 3.80859Z" fill="black"/>
<path d="M0.976616 11.2842C0.537162 11.3721 0.0879437 11.8359 0.0195843 12.2803C-0.0292438 12.6074 0.0342328 12.9101 0.210014 13.1689C0.415092 13.4717 0.693412 13.6621 1.02544 13.7207C1.20611 13.7549 5.14165 13.7646 12.671 13.7597C22.9737 13.7451 24.0626 13.7353 24.2188 13.667C24.4727 13.5498 24.6924 13.3496 24.8438 13.0908C24.9561 12.9004 24.9756 12.8125 24.9756 12.5C24.9756 12.1875 24.9561 12.0996 24.8438 11.9092C24.6924 11.6504 24.4727 11.4502 24.2188 11.333C24.0626 11.2597 22.9786 11.2549 12.6221 11.25C6.1524 11.2451 1.09869 11.2597 0.976616 11.2842Z" fill="black"/>
<path d="M12.1046 18.8184C11.0207 19.2041 10.9621 20.6641 12.0119 21.1377C12.2267 21.2353 12.3 21.2402 18.0959 21.2402C24.6242 21.2402 24.2287 21.2598 24.5998 20.9033C24.8781 20.6299 24.9757 20.3955 24.9757 19.9951C24.9709 19.7412 24.9464 19.5996 24.8683 19.4531C24.7169 19.1699 24.3605 18.8721 24.0968 18.8037C23.7648 18.7207 12.3439 18.7305 12.1046 18.8184Z" fill="black"/>
</svg>
