<svg width="60" height="60" viewBox="0 0 60 60" fill="none" xmlns="http://www.w3.org/2000/svg">
<g clip-path="url(#clip0_101_897)">
<path d="M16.1484 0.117188C12.8789 0.714844 10.7344 2.60156 9.94922 5.58984C9.62109 6.83203 9.62109 8.84766 9.9375 10.0781C10.3945 11.7891 11.2266 13.2539 12.4102 14.3789L13.0547 15H6.82031H0.574219L0.292969 15.293L0 15.5742V23.2031V30.832L0.292969 31.1133C0.574219 31.4062 0.609375 31.4062 2.63672 31.4062H4.6875V45.4102V59.4258L4.98047 59.707L5.26172 60H29.7656H54.2695L54.5508 59.707L54.8438 59.4258V45.4102V31.4062H57.1289C59.4141 31.4062 59.4258 31.4062 59.707 31.1133L60 30.832V23.2031V15.5742L59.707 15.293L59.4258 15H53.1914H46.957L47.8477 14.0742C49.4414 12.4102 50.2734 10.2539 50.2734 7.79297C50.2734 3.99609 48.3281 1.33594 44.8242 0.328125C44.0508 0.105469 43.6172 0.0703125 42.3047 0.0703125C40.9453 0.0820312 40.582 0.128906 39.6914 0.398438C36.7852 1.27734 34.4648 3.11719 32.25 6.30469C31.5938 7.24219 30.4922 9.33984 30.2461 10.1016C30.1641 10.3477 30.0586 10.5469 30 10.5469C29.9414 10.5469 29.8359 10.3477 29.7539 10.1016C29.332 8.8125 27.8672 6.31641 26.707 4.92188C24.6797 2.48438 22.7461 1.11328 20.3086 0.398438C19.1719 0.0703125 17.1445 -0.0703125 16.1484 0.117188ZM19.1953 2.0625C20.9531 2.42578 22.3008 3.14062 23.7188 4.46484C26.4727 7.04297 28.2891 10.418 28.8867 14.0859L29.0273 15H23.7422C20.6133 15 18.1406 14.9531 17.6953 14.8711C15.9375 14.5898 14.2148 13.6875 13.2422 12.5508C11.4492 10.4531 11.0273 6.97266 12.2812 4.65234C12.668 3.92578 13.7578 2.91797 14.5547 2.54297C15.8789 1.91016 17.6133 1.73438 19.1953 2.0625ZM44.4141 2.17969C46.4297 2.77734 47.8477 4.24219 48.2812 6.16406C48.4805 6.99609 48.4453 8.84766 48.2227 9.66797C47.6953 11.6367 46.418 13.2773 44.7656 14.0859C43.043 14.9297 43.125 14.918 36.7266 14.9648L30.9727 15.0117L31.1133 14.0859C31.957 8.83594 35.5898 3.84375 39.6562 2.37891C41.1094 1.86328 43.0664 1.76953 44.4141 2.17969ZM22.0312 23.2031V29.5312H11.9531H1.875V23.2031V16.875H11.9531H22.0312V23.2031ZM36.0938 37.5V58.125H30H23.9062V37.5V16.875H30H36.0938V37.5ZM58.125 23.2031V29.5312H48.0469H37.9688V23.2031V16.875H48.0469H58.125V23.2031ZM22.0312 44.7656V58.125H14.2969H6.5625V44.7656V31.4062H14.2969H22.0312V44.7656ZM52.9688 44.7656V58.125H45.4688H37.9688V44.7656V31.4062H45.4688H52.9688V44.7656Z" fill="#FF8A00"/>
</g>
<defs>
<clipPath id="clip0_101_897">
<rect width="60" height="60" fill="white"/>
</clipPath>
</defs>
</svg>
