<svg width="50" height="60" viewBox="0 0 50 60" fill="none" xmlns="http://www.w3.org/2000/svg">
<path d="M3.63666 0.128904C2.42963 0.410154 1.2226 1.42969 0.6601 2.63672L0.331975 3.33984L0.296819 8.00391C0.261663 12.0469 0.2851 12.7617 0.449163 13.3359C0.964788 15.1406 2.32416 16.2773 4.24604 16.5352C4.74994 16.6055 6.20307 16.6406 7.46869 16.6172C9.74213 16.582 9.78901 16.582 10.0117 16.3008C10.3046 15.9492 10.2929 15.4102 9.99994 15.1172C9.77729 14.8945 9.61323 14.8828 7.31635 14.8828C5.98041 14.8828 4.58588 14.8242 4.24604 14.7656C3.39057 14.6016 2.75776 14.1445 2.35932 13.3711L2.03119 12.75V8.39062C2.03119 5.57812 2.07807 3.8789 2.1601 3.57422C2.33588 2.9414 3.22651 2.0625 3.85932 1.88672C4.21088 1.79297 10.1523 1.76953 25.2695 1.78125L46.1874 1.8164L46.6914 2.16797C46.9726 2.36719 47.3593 2.7539 47.5585 3.03515L47.9101 3.53906L47.9453 8.13281L47.9804 12.7266L47.6406 13.3594C47.2421 14.1445 46.6093 14.6016 45.7539 14.7656C45.3671 14.8359 41.8749 14.8828 36.7539 14.8828C30.8593 14.8828 28.3046 14.918 28.1289 15.0117C27.9882 15.082 27.2265 15.7852 26.4414 16.5586L24.9999 17.9883L23.5703 16.5586C22.7734 15.7852 22.0117 15.082 21.871 15.0117C21.6953 14.9297 20.2421 14.8828 17.3359 14.8828H13.0585L12.8242 15.1875C12.5078 15.5977 12.5195 15.8555 12.8593 16.2539L13.1406 16.582L17.1601 16.6172L21.1796 16.6523L22.7148 18.1523C23.8984 19.3125 24.3203 19.6641 24.6132 19.7109C25.4921 19.8398 25.6914 19.7227 27.2968 18.1523L28.8203 16.6406H36.9648C41.6523 16.6406 45.4374 16.582 45.8945 16.5234C47.6874 16.2656 49.0468 15.082 49.5507 13.3359C49.7148 12.7617 49.7382 12.0469 49.7031 8.00391L49.6679 3.33984L49.3046 2.57812C48.8359 1.60547 48.1093 0.878904 47.1484 0.421873L46.3867 0.0585918L25.2343 0.0351543C13.1874 0.0351543 3.89448 0.0703106 3.63666 0.128904Z" fill="#FF8A00"/>
<path d="M8.49995 3.46875C8.35932 3.5625 7.99604 4.13672 7.70307 4.72266C7.39838 5.32031 7.15229 5.8125 7.14057 5.82422C7.12885 5.83594 6.56635 5.92969 5.89838 6.03516C4.5976 6.23438 4.32807 6.36328 4.07026 6.98438C3.81245 7.60547 4.0351 8.08594 4.98432 8.95312L5.82807 9.72656L5.62885 10.9688C5.44135 12.1055 5.44135 12.2461 5.61713 12.5977C5.79291 12.9727 6.36713 13.3594 6.76557 13.3594C6.87104 13.3594 7.45698 13.1016 8.06635 12.7852L9.17963 12.1992L10.3164 12.7852C11.5585 13.4414 11.9101 13.4648 12.4374 12.9727C12.9062 12.5391 12.9414 12.2812 12.7304 10.9688L12.5312 9.75L13.4218 8.89453C14.371 7.95703 14.5468 7.58203 14.2773 6.97266C14.0195 6.36328 13.7499 6.22266 12.4374 6.02344L11.207 5.83594L10.6914 4.78125C10.4101 4.19531 10.0468 3.62109 9.89448 3.50391C9.55463 3.23438 8.86323 3.21094 8.49995 3.46875ZM9.58979 6.44531C9.99995 7.28906 10.2109 7.45312 11.2187 7.62891L12.0039 7.75781L11.4179 8.37891C10.7265 9.11719 10.6445 9.35156 10.8085 10.2656C10.8789 10.6406 10.9374 10.9805 10.9374 11.0391C10.9374 11.0977 10.621 10.9805 10.2343 10.7812C9.8476 10.5938 9.37885 10.4297 9.17963 10.4297C8.98041 10.4297 8.51166 10.5938 8.12495 10.7812C7.73823 10.9805 7.42182 11.0977 7.42182 11.0391C7.42182 10.9805 7.48041 10.6406 7.55073 10.2656C7.71479 9.35156 7.63276 9.11719 6.94135 8.37891L6.35541 7.75781L7.14057 7.62891C8.14838 7.45312 8.35932 7.28906 8.76948 6.44531C8.95698 6.05859 9.14448 5.74219 9.17963 5.74219C9.21479 5.74219 9.40229 6.05859 9.58979 6.44531Z" fill="#FF8A00"/>
<path d="M24.3203 3.46875C24.1796 3.5625 23.8164 4.13672 23.5234 4.72266C23.2187 5.32031 22.9726 5.8125 22.9609 5.82422C22.9492 5.83594 22.3867 5.92969 21.7187 6.03516C20.4179 6.23438 20.1484 6.36328 19.8906 6.98438C19.6328 7.60547 19.8554 8.08594 20.8046 8.95312L21.6484 9.72656L21.4492 10.9688C21.2617 12.1055 21.2617 12.2461 21.4374 12.5977C21.6132 12.9727 22.1874 13.3594 22.5859 13.3594C22.6914 13.3594 23.2773 13.1016 23.8867 12.7852L24.9999 12.1992L26.1367 12.7852C27.3789 13.4414 27.7304 13.4648 28.2578 12.9727C28.7265 12.5391 28.7617 12.2812 28.5507 10.9688L28.3515 9.75L29.2421 8.89453C30.1914 7.95703 30.3671 7.58203 30.0976 6.97266C29.8398 6.36328 29.5703 6.22266 28.2578 6.02344L27.0273 5.83594L26.5117 4.78125C26.2304 4.19531 25.8671 3.62109 25.7148 3.50391C25.3749 3.23438 24.6835 3.21094 24.3203 3.46875ZM25.4101 6.44531C25.8203 7.28906 26.0312 7.45312 27.039 7.62891L27.8242 7.75781L27.2382 8.37891C26.5468 9.11719 26.4648 9.35156 26.6289 10.2656C26.6992 10.6406 26.7578 10.9805 26.7578 11.0391C26.7578 11.0977 26.4414 10.9805 26.0546 10.7812C25.6679 10.5938 25.1992 10.4297 24.9999 10.4297C24.8007 10.4297 24.332 10.5938 23.9453 10.7812C23.5585 10.9805 23.2421 11.0977 23.2421 11.0391C23.2421 10.9805 23.3007 10.6406 23.371 10.2656C23.5351 9.35156 23.4531 9.11719 22.7617 8.37891L22.1757 7.75781L22.9609 7.62891C23.9687 7.45312 24.1796 7.28906 24.5898 6.44531C24.7773 6.05859 24.9648 5.74219 24.9999 5.74219C25.0351 5.74219 25.2226 6.05859 25.4101 6.44531Z" fill="#FF8A00"/>
<path d="M40.1406 3.46875C39.9999 3.5625 39.6367 4.13672 39.3437 4.72266C39.039 5.32031 38.7929 5.8125 38.7812 5.82422C38.7695 5.83594 38.207 5.92969 37.539 6.03516C36.2382 6.23438 35.9687 6.36328 35.7109 6.98438C35.4531 7.60547 35.6757 8.08594 36.6249 8.95312L37.4687 9.72656L37.2695 10.9688C37.082 12.1055 37.082 12.2461 37.2578 12.5977C37.4335 12.9727 38.0078 13.3594 38.4062 13.3594C38.5117 13.3594 39.0976 13.1016 39.707 12.7852L40.8203 12.1992L41.957 12.7852C43.1992 13.4414 43.5507 13.4648 44.0781 12.9727C44.5468 12.5391 44.582 12.2812 44.371 10.9688L44.1718 9.75L45.0624 8.89453C46.0117 7.95703 46.1874 7.58203 45.9179 6.97266C45.6601 6.36328 45.3906 6.22266 44.0781 6.02344L42.8476 5.83594L42.332 4.78125C42.0507 4.19531 41.6874 3.62109 41.5351 3.50391C41.1953 3.23438 40.5039 3.21094 40.1406 3.46875ZM41.2304 6.44531C41.6406 7.28906 41.8515 7.45312 42.8593 7.62891L43.6445 7.75781L43.0585 8.37891C42.3671 9.11719 42.2851 9.35156 42.4492 10.2656C42.5195 10.6406 42.5781 10.9805 42.5781 11.0391C42.5781 11.0977 42.2617 10.9805 41.8749 10.7812C41.4882 10.5938 41.0195 10.4297 40.8203 10.4297C40.621 10.4297 40.1523 10.5938 39.7656 10.7812C39.3789 10.9805 39.0624 11.0977 39.0624 11.0391C39.0624 10.9805 39.121 10.6406 39.1914 10.2656C39.3554 9.35156 39.2734 9.11719 38.582 8.37891L37.996 7.75781L38.7812 7.62891C39.789 7.45312 39.9999 7.28906 40.4101 6.44531C40.5976 6.05859 40.7851 5.74219 40.8203 5.74219C40.8554 5.74219 41.0429 6.05859 41.2304 6.44531Z" fill="#FF8A00"/>
<path d="M23.5234 21.6914C21.1328 21.8555 18.5429 22.5703 16.3984 23.6602C11.2539 26.2852 7.56247 31.0078 6.29685 36.5625C5.13669 41.6953 6.10935 46.9688 9.05076 51.3516C15.0508 60.293 26.7929 62.6484 35.7461 56.6953C37.3984 55.5938 39.7656 53.2617 40.8086 51.6797C41.7343 50.2969 42.6953 48.3867 42.6953 47.9531C42.6953 47.3086 41.875 46.875 41.3711 47.25C41.2656 47.332 40.8906 47.9648 40.539 48.668C39.9765 49.7813 39.1328 51.0586 38.3125 52.0781L38.0429 52.4063L37.7383 51.457C36.6601 48.1406 34.7383 45.8086 31.2929 43.6523C31.1289 43.5469 31.1523 43.4531 31.5156 42.8789C31.7383 42.5273 32.0664 41.8359 32.2304 41.3555C32.5117 40.5586 32.5468 40.3008 32.5937 38.1914C32.6523 35.5781 32.5 34.6758 31.7734 33.1875C31.2461 32.0977 29.582 30.4336 28.4922 29.9063C26.582 28.9805 24.5078 28.8281 22.5742 29.4727C20.3593 30.2109 18.6133 31.9453 17.8047 34.2188L17.4414 35.2148V37.793C17.4414 40.1953 17.4648 40.4297 17.7226 41.2266C17.875 41.6953 18.2031 42.4102 18.4492 42.8086C18.8359 43.4414 18.8711 43.5469 18.707 43.6523C15.9179 45.3984 14.2539 47.1328 13.0468 49.5469C12.8008 50.0391 12.4492 50.8828 12.2851 51.4219L11.9687 52.3828L11.5 51.8203C10.2109 50.2852 8.98044 47.9883 8.37107 45.9961C7.78513 44.0508 7.60935 42.9141 7.60935 40.8398C7.60935 37.8281 8.08982 35.7656 9.41404 33.1055C10.3398 31.2305 11.1953 30.0234 12.6601 28.5586C15.2851 25.9102 18.4375 24.2695 22.1875 23.6016C23.5703 23.3555 26.3945 23.3672 27.8828 23.6133C36.7773 25.125 43.2461 33.457 42.3437 42.2695C42.2617 43.0898 42.1914 43.9219 42.1914 44.1094C42.1914 44.7773 43.1406 45.1406 43.6211 44.6602C43.9609 44.3203 44.1484 42.9492 44.1484 40.7813C44.1367 35.5898 42.25 30.9961 38.5937 27.3047C34.6093 23.2852 29.3008 21.3047 23.5234 21.6914ZM26.1836 30.9375C28.2109 31.3125 30.1093 33.1172 30.6484 35.1445C30.9179 36.1758 30.9414 39.375 30.6836 40.3477C29.9922 43.0078 27.7422 44.7773 25.0351 44.7773C22.3047 44.7891 20.0078 43.0195 19.3164 40.3711C19.0703 39.4219 19.0703 36.375 19.3281 35.2734C19.9961 32.2969 23.0781 30.3633 26.1836 30.9375ZM20.582 45.1641C21.7539 46.043 23.3125 46.5234 24.9531 46.5352C26.664 46.5469 28.2109 46.0664 29.4297 45.1523L29.8164 44.8594L30.4843 45.2344C33.5898 46.9805 35.7812 49.9453 36.3672 53.2148C36.4961 53.8945 36.4843 53.918 36.1679 54.1992C34.9609 55.2773 32.289 56.7656 30.4609 57.3633C28.4922 57.9961 27.3437 58.1719 25 58.1719C22.6562 58.1719 21.4961 57.9961 19.539 57.3516C17.6406 56.7422 14.664 55.0547 13.75 54.082L13.4804 53.7891L13.7148 52.8164C14.0429 51.5039 14.5937 50.2148 15.2968 49.125C16.1172 47.8594 17.7929 46.2656 19.082 45.4922C19.6562 45.1641 20.1367 44.8828 20.1601 44.8828C20.1953 44.8828 20.3828 45.0117 20.582 45.1641Z" fill="#FF8A00"/>
</svg>
