<svg width="54" height="54" viewBox="0 0 54 54" fill="none" xmlns="http://www.w3.org/2000/svg">
<path d="M3.53906 0.503906C3.17578 0.621094 2.69531 0.832031 2.46094 0.972656C1.80469 1.38281 0.902344 2.44922 0.609375 3.1875L0.339844 3.85547V27V50.1445L0.621094 50.8477C1.00781 51.8203 2.17969 52.9922 3.15234 53.3789L3.85547 53.6602H27H50.1445L50.8125 53.3906C51.5977 53.0742 52.6289 52.1836 53.0508 51.457C53.7656 50.2383 53.7188 51.8672 53.6953 26.7656L53.6602 3.85547L53.3789 3.15234C52.9922 2.17969 51.8203 1.00781 50.8477 0.621094L50.1445 0.339844L27.1758 0.316406C5.26172 0.292969 4.17188 0.304688 3.53906 0.503906ZM50.4492 1.64062C51.2344 2.00391 51.9023 2.66016 52.2773 3.42188C52.6055 4.07812 52.6055 4.125 52.6406 6.63281L52.6875 9.1875H27H1.3125L1.35938 6.63281C1.39453 4.34766 1.41797 4.03125 1.64062 3.55078C2.12109 2.51953 2.97656 1.78125 4.03125 1.5C4.44141 1.38281 9.5625 1.35938 27.2344 1.37109L49.9102 1.39453L50.4492 1.64062ZM52.6406 30.0703L52.6055 49.9102L52.2773 50.5781C51.9023 51.3398 51.2344 51.9961 50.4492 52.3594L49.9102 52.6055H27H4.08984L3.55078 52.3594C2.76562 51.9961 2.09766 51.3398 1.72266 50.5781L1.39453 49.9102L1.35938 30.0703L1.33594 10.2422H27H52.6641L52.6406 30.0703Z" fill="#FF8A00"/>
<path d="M5.69531 4.875C5.51953 5.05078 5.51953 5.47266 5.69531 5.64844C5.78906 5.74219 6.31641 5.78906 7.3125 5.78906C8.85938 5.78906 9.07031 5.73047 9.07031 5.26172C9.07031 4.79297 8.85938 4.73438 7.3125 4.73438C6.31641 4.73438 5.78906 4.78125 5.69531 4.875Z" fill="#FF8A00"/>
<path d="M10.8516 4.875C10.6758 5.05078 10.6758 5.47266 10.8516 5.64844C10.9453 5.74219 11.4844 5.78906 12.4922 5.78906C13.8984 5.78906 13.9922 5.77734 14.1211 5.54297C14.2148 5.35547 14.2148 5.21484 14.1211 5.01562C14.0039 4.74609 13.957 4.73438 12.4922 4.73438C11.4844 4.73438 10.9453 4.78125 10.8516 4.875Z" fill="#FF8A00"/>
<path d="M16.0078 4.875C15.9258 4.95703 15.8672 5.12109 15.8672 5.26172C15.8672 5.71875 16.0781 5.78906 17.5781 5.78906C18.7266 5.78906 19.0547 5.75391 19.1953 5.60156C19.3008 5.50781 19.3828 5.34375 19.3828 5.26172C19.3828 5.17969 19.3008 5.01562 19.1953 4.92188C19.0547 4.76953 18.7266 4.73438 17.5781 4.73438C16.6289 4.73438 16.1016 4.78125 16.0078 4.875Z" fill="#FF8A00"/>
<path d="M31.0898 4.98047C30.9961 5.16797 30.9961 5.30859 31.0898 5.50781L31.2188 5.78906L39.7852 5.76562C48.2812 5.73047 48.3633 5.73047 48.5156 5.49609C48.6562 5.28516 48.6445 5.21484 48.4922 4.99219L48.3164 4.73438H39.7734H31.2305L31.0898 4.98047Z" fill="#FF8A00"/>
<path d="M5.96488 13.7461C5.40238 14.0039 5.0391 14.3789 4.793 14.9531C4.64066 15.3281 4.61722 16.0898 4.62894 19.9336C4.64066 24.832 4.65238 24.9609 5.26175 25.6055C5.95316 26.3437 4.46488 26.2969 27 26.2969C49.5352 26.2969 48.0469 26.3437 48.7383 25.6055C49.3477 24.9609 49.3594 24.832 49.3711 19.9336C49.3828 16.0898 49.3594 15.3281 49.2071 14.9531C48.961 14.3789 48.5977 14.0039 48.0352 13.7461C47.5899 13.5352 46.7461 13.5234 27 13.5234C7.25394 13.5234 6.41019 13.5352 5.96488 13.7461ZM47.4961 14.6836C47.6485 14.7187 47.8946 14.9062 48.0235 15.082C48.2578 15.4102 48.2696 15.5273 48.2696 19.9922V24.5625L47.8828 24.9023L47.5078 25.2422H27H6.49222L6.11722 24.9023L5.7305 24.5625V19.9922C5.7305 15.5273 5.74222 15.4102 5.9766 15.082C6.1055 14.9062 6.3516 14.7187 6.50394 14.6836C6.86722 14.5781 47.1328 14.5781 47.4961 14.6836Z" fill="#FF8A00"/>
<path d="M5.96484 29.625C5.50781 29.836 5.02734 30.3516 4.80469 30.8906C4.64062 31.2774 4.61719 32.332 4.61719 39.0938C4.61719 44.4024 4.66406 47.0156 4.74609 47.332C4.93359 48.0235 5.625 48.6328 6.41016 48.7969C6.84375 48.8789 9.69141 48.9141 15.7617 48.8906C23.625 48.8555 24.5156 48.832 24.832 48.6563C25.3008 48.3985 25.7812 47.8828 25.9336 47.4727C26.0273 47.25 26.0625 44.4961 26.0625 39.1172C26.0625 31.4766 26.0508 31.0664 25.8398 30.6563C25.5703 30.1172 25.3008 29.8711 24.7383 29.6367C24.3633 29.4844 23.1562 29.461 15.3164 29.461C8.0625 29.4727 6.24609 29.4961 5.96484 29.625ZM24.3633 30.6563C25.0195 30.9492 25.0078 30.7735 25.0078 39.2461V47.0625L24.668 47.4024L24.3281 47.7422H15.3398H6.36328L6.08203 47.461C5.91797 47.2969 5.77734 46.9805 5.73047 46.6758C5.69531 46.3945 5.67188 42.8086 5.69531 38.707C5.73047 31.4297 5.74219 31.2422 5.96484 30.9844C6.09375 30.8438 6.30469 30.6797 6.43359 30.6211C6.83203 30.4688 24.0117 30.4922 24.3633 30.6563Z" fill="#FF8A00"/>
<path d="M29.836 29.6016C29.6485 29.7891 29.6602 30.2227 29.8594 30.3867C29.9649 30.4805 30.9961 30.5156 33.3985 30.4922L36.7852 30.457L36.8204 30.1289C36.9024 29.4609 36.879 29.4609 33.2813 29.4609C30.8672 29.4609 29.9415 29.4961 29.836 29.6016Z" fill="#FF8A00"/>
<path d="M39.2578 29.6484C39.0352 29.8594 39.0117 30.1758 39.2109 30.375C39.3164 30.4805 40.5937 30.5156 44.25 30.5156C48.9609 30.5156 49.1484 30.5039 49.2656 30.293C49.4297 29.9766 49.418 29.8594 49.1953 29.6484C49.043 29.4844 48.4219 29.4609 44.2266 29.4609C40.0312 29.4609 39.4102 29.4844 39.2578 29.6484Z" fill="#FF8A00"/>
<path d="M29.8359 34.1719C29.7539 34.2539 29.6953 34.418 29.6953 34.5586C29.6953 34.6992 29.7539 34.8633 29.8359 34.9453C29.9414 35.0508 32.2617 35.0859 39.5625 35.0859C48.9141 35.0859 49.1484 35.0859 49.2656 34.8633C49.4297 34.5469 49.418 34.4297 49.1953 34.2188C49.0312 34.0547 47.9883 34.0312 39.4922 34.0312C32.25 34.0312 29.9414 34.0664 29.8359 34.1719Z" fill="#FF8A00"/>
<path d="M29.9062 38.7305C29.6601 38.8711 29.625 39.3047 29.8359 39.5156C30.0351 39.7148 38.496 39.7148 38.6953 39.5156C38.9062 39.3047 38.8593 38.8594 38.6132 38.7188C38.3085 38.5547 30.1875 38.5664 29.9062 38.7305Z" fill="#FF8A00"/>
<path d="M41.2734 38.7305C41.0273 38.8711 40.9921 39.3047 41.2031 39.5156C41.3085 39.6211 42.3632 39.6562 45.246 39.6562H49.1484L49.289 39.3633C49.3945 39.1172 49.3828 39.0352 49.207 38.8359C49.0078 38.6133 48.8554 38.6016 45.2343 38.6016C42.9023 38.6016 41.3906 38.6484 41.2734 38.7305Z" fill="#FF8A00"/>
<path d="M29.9062 43.3008C29.7773 43.3711 29.6953 43.5586 29.6953 43.7695C29.6953 44.0273 29.7656 44.1445 30 44.2266C30.4805 44.4141 48.668 44.3789 49.0312 44.1914C49.3945 44.0039 49.4648 43.6875 49.1953 43.3945C48.9961 43.1836 48.7266 43.1719 39.5508 43.1719C33.3516 43.1836 30.0352 43.2187 29.9062 43.3008Z" fill="#FF8A00"/>
<path d="M29.9062 47.8711C29.7773 47.9414 29.6953 48.1289 29.6953 48.3398C29.6953 48.5977 29.7656 48.7148 30 48.7969C30.1758 48.8672 32.5547 48.9141 35.9414 48.9141C40.875 48.9141 41.625 48.8906 41.8594 48.7266C42.1641 48.5156 42.1875 48.1875 41.9297 47.9297C41.7656 47.7656 41.0625 47.7422 35.9297 47.7422C32.1914 47.7422 30.0352 47.7891 29.9062 47.8711Z" fill="#FF8A00"/>
</svg>
