<svg width="50" height="50" viewBox="0 0 50 50" fill="none" xmlns="http://www.w3.org/2000/svg">
<path d="M2.49023 0.0879059C1.54297 0.332047 0.742188 0.976578 0.322266 1.84572L0.0488281 2.39259V7.42189V12.4512L0.322266 12.9883C0.683594 13.6914 1.16211 14.1699 1.83594 14.5117L2.39258 14.7949H25H47.6074L48.0664 14.5801C48.7207 14.2774 49.3262 13.6817 49.668 13.0176L49.9512 12.4512V7.42189V2.39259L49.668 1.82619C49.3262 1.16212 48.7207 0.566422 48.0664 0.263687L47.6074 0.0488434L25.1953 0.0293121C12.8711 0.0293121 2.65625 0.0488434 2.49023 0.0879059ZM47.334 1.66994C47.7051 1.80666 48.1445 2.22658 48.3008 2.60744C48.4961 3.06642 48.4961 11.7774 48.3008 12.2363C48.1445 12.6172 47.7051 13.0371 47.334 13.1738C47.1387 13.252 40.3418 13.2813 24.9902 13.2813C6.47461 13.2813 2.87109 13.2617 2.60742 13.1445C2.22656 12.9883 1.80664 12.5488 1.66992 12.1777C1.60156 11.9922 1.5625 10.3516 1.5625 7.42189C1.5625 4.4922 1.60156 2.85158 1.66992 2.66603C1.80664 2.3047 2.22656 1.86525 2.58789 1.69923C2.83203 1.59181 6.72852 1.57228 24.9707 1.56252C40.3516 1.56252 47.1387 1.59181 47.334 1.66994Z" fill="#FF8A00"/>
<path d="M7.27539 6.88478C7.11914 7.03127 7.03125 7.23634 7.03125 7.42189C7.03125 7.60744 7.11914 7.81252 7.27539 7.959L7.50977 8.20314H25H42.4902L42.7246 7.959C43.0469 7.6465 43.0469 7.19728 42.7246 6.88478L42.4902 6.64064H25H7.50977L7.27539 6.88478Z" fill="#FF8A00"/>
<path d="M2.49023 17.2754C1.54297 17.5195 0.742188 18.1641 0.322266 19.0332L0.0488281 19.5801V24.6094V29.6387L0.322266 30.1758C0.683594 30.8789 1.16211 31.3574 1.83594 31.6992L2.39258 31.9824H25H47.6074L48.0664 31.7676C48.7207 31.4648 49.3262 30.8691 49.668 30.2051L49.9512 29.6387V24.6094V19.5801L49.668 19.0137C49.3262 18.3496 48.7207 17.7539 48.0664 17.4512L47.6074 17.2363L25.1953 17.2168C12.8711 17.2168 2.65625 17.2363 2.49023 17.2754ZM47.334 18.8574C47.7051 18.9941 48.1445 19.4141 48.3008 19.7949C48.4961 20.2539 48.4961 28.9648 48.3008 29.4238C48.1445 29.8047 47.7051 30.2246 47.334 30.3613C47.1387 30.4395 40.3418 30.4688 24.9902 30.4688C6.47461 30.4688 2.87109 30.4492 2.60742 30.332C2.22656 30.1758 1.80664 29.7363 1.66992 29.3652C1.60156 29.1797 1.5625 27.5391 1.5625 24.6094C1.5625 21.6797 1.60156 20.0391 1.66992 19.8535C1.80664 19.4922 2.22656 19.0527 2.58789 18.8867C2.83203 18.7793 6.72852 18.7598 24.9707 18.75C40.3516 18.75 47.1387 18.7793 47.334 18.8574Z" fill="#FF8A00"/>
<path d="M12.041 21.2793C11.9238 21.3867 11.6504 21.8067 11.416 22.207C11.1816 22.6172 10.9668 22.9492 10.9375 22.9492C10.9082 22.9492 10.7129 22.6563 10.5078 22.2852C9.98047 21.3574 9.80469 21.1914 9.36523 21.1914C9.08203 21.1914 8.95508 21.25 8.79883 21.4453C8.50586 21.8164 8.54492 22.0215 9.08203 22.9492L9.56055 23.7793L8.48633 23.8281C7.5 23.877 7.39258 23.8965 7.2168 24.1113C6.98242 24.4043 6.98242 24.8145 7.2168 25.1074C7.39258 25.3223 7.5 25.3418 8.48633 25.3906L9.56055 25.4395L9.08203 26.2695C8.81836 26.7285 8.59375 27.2266 8.59375 27.3731C8.59375 27.7344 8.98438 28.125 9.35547 28.125C9.72656 28.125 9.96094 27.8906 10.459 27.0117C10.6934 26.6016 10.9082 26.2695 10.9375 26.2695C10.9668 26.2695 11.1621 26.5625 11.3672 26.9238C11.8945 27.8613 12.0703 28.0274 12.5098 28.0274C12.793 28.0274 12.9199 27.9688 13.0762 27.7735C13.3691 27.4024 13.3301 27.1973 12.793 26.2695L12.3145 25.4395L13.3887 25.3906C14.375 25.3418 14.4824 25.3223 14.6582 25.1074C14.7559 24.9805 14.8438 24.7559 14.8438 24.6094C14.8438 24.4629 14.7559 24.2383 14.6582 24.1113C14.4824 23.8965 14.375 23.877 13.3887 23.8281L12.3145 23.7793L12.793 22.9492C13.3398 22.0117 13.3887 21.6797 13.0371 21.3379C12.7539 21.0449 12.3242 21.0254 12.041 21.2793Z" fill="#FF8A00"/>
<path d="M21.416 21.2793C21.2988 21.3867 21.0254 21.8067 20.791 22.207C20.5566 22.6172 20.3418 22.9492 20.3125 22.9492C20.2832 22.9492 20.0879 22.6563 19.8828 22.2852C19.3555 21.3574 19.1797 21.1914 18.7402 21.1914C18.457 21.1914 18.3301 21.25 18.1738 21.4453C17.8809 21.8164 17.9199 22.0215 18.457 22.9492L18.9355 23.7793L17.8613 23.8281C16.875 23.877 16.7676 23.8965 16.5918 24.1113C16.3574 24.4043 16.3574 24.8145 16.5918 25.1074C16.7676 25.3223 16.875 25.3418 17.8613 25.3906L18.9355 25.4395L18.457 26.2695C18.1934 26.7285 17.9688 27.2266 17.9688 27.3731C17.9688 27.7344 18.3594 28.125 18.7305 28.125C19.1016 28.125 19.3359 27.8906 19.834 27.0117C20.0684 26.6016 20.2832 26.2695 20.3125 26.2695C20.3418 26.2695 20.5566 26.6016 20.791 27.0117C21.2891 27.8906 21.5234 28.125 21.8945 28.125C22.2656 28.125 22.6562 27.7344 22.6562 27.3731C22.6562 27.2266 22.4316 26.7285 22.168 26.2695L21.6895 25.4395L22.7637 25.3906C23.75 25.3418 23.8574 25.3223 24.0332 25.1074C24.1309 24.9805 24.2188 24.7559 24.2188 24.6094C24.2188 24.4629 24.1309 24.2383 24.0332 24.1113C23.8574 23.8965 23.75 23.877 22.7637 23.8281L21.6895 23.7793L22.168 22.9492C22.7148 22.0117 22.7637 21.6797 22.4121 21.3379C22.1289 21.0449 21.6992 21.0254 21.416 21.2793Z" fill="#FF8A00"/>
<path d="M27.5879 21.3379C27.2363 21.6797 27.2852 22.0117 27.832 22.9492L28.3105 23.7793L27.2363 23.8281C26.25 23.877 26.1426 23.8965 25.9668 24.1113C25.8691 24.2383 25.7812 24.4629 25.7812 24.6094C25.7812 24.7559 25.8691 24.9805 25.9668 25.1074C26.1426 25.3223 26.25 25.3418 27.2363 25.3906L28.3105 25.4395L27.832 26.2695C27.5684 26.7285 27.3438 27.2266 27.3438 27.3731C27.3438 27.7344 27.7344 28.125 28.1055 28.125C28.4766 28.125 28.7109 27.8906 29.209 27.0117C29.4434 26.6016 29.6582 26.2695 29.6875 26.2695C29.7168 26.2695 29.9316 26.6016 30.166 27.0117C30.6641 27.8906 30.8984 28.125 31.2695 28.125C31.6406 28.125 32.0312 27.7344 32.0312 27.3731C32.0312 27.2266 31.8066 26.7285 31.543 26.2695L31.0645 25.4395L32.1387 25.3906C33.125 25.3418 33.2324 25.3223 33.4082 25.1074C33.5059 24.9805 33.5938 24.7559 33.5938 24.6094C33.5938 24.4629 33.5059 24.2383 33.4082 24.1113C33.2324 23.8965 33.125 23.877 32.1387 23.8281L31.0645 23.7793L31.543 22.9492C32.0801 22.0215 32.1191 21.8164 31.8262 21.4453C31.6699 21.25 31.543 21.1914 31.2598 21.1914C30.8203 21.1914 30.6445 21.3574 30.1172 22.2852C29.9121 22.6563 29.7168 22.9492 29.6875 22.9492C29.6582 22.9492 29.4434 22.6172 29.209 22.207C28.9746 21.8067 28.7012 21.3867 28.584 21.2793C28.3008 21.0254 27.8711 21.0449 27.5879 21.3379Z" fill="#FF8A00"/>
<path d="M36.9629 21.3379C36.6113 21.6797 36.6602 22.0117 37.207 22.9492L37.6855 23.7793L36.6113 23.8281C35.625 23.877 35.5176 23.8965 35.3418 24.1113C35.2441 24.2383 35.1562 24.4629 35.1562 24.6094C35.1562 24.7559 35.2441 24.9805 35.3418 25.1074C35.5176 25.3223 35.625 25.3418 36.6113 25.3906L37.6855 25.4395L37.207 26.2695C36.9434 26.7285 36.7188 27.2266 36.7188 27.3731C36.7188 27.7344 37.1094 28.125 37.4805 28.125C37.8516 28.125 38.0859 27.8906 38.584 27.0117C38.8184 26.6016 39.0332 26.2695 39.0625 26.2695C39.0918 26.2695 39.3066 26.6016 39.541 27.0117C40.0391 27.8906 40.2734 28.125 40.6445 28.125C41.0156 28.125 41.4062 27.7344 41.4062 27.3731C41.4062 27.2266 41.1816 26.7285 40.918 26.2695L40.4395 25.4395L41.5137 25.3906C42.5 25.3418 42.6074 25.3223 42.7832 25.1074C42.8809 24.9805 42.9688 24.7559 42.9688 24.6094C42.9688 24.4629 42.8809 24.2383 42.7832 24.1113C42.6074 23.8965 42.5 23.877 41.5137 23.8281L40.4395 23.7793L40.918 22.9492C41.4551 22.0215 41.4941 21.8164 41.2012 21.4453C41.0449 21.25 40.918 21.1914 40.6348 21.1914C40.1953 21.1914 40.0195 21.3574 39.4922 22.2852C39.2871 22.6563 39.0918 22.9492 39.0625 22.9492C39.0332 22.9492 38.8184 22.6172 38.584 22.207C38.3496 21.8067 38.0762 21.3867 37.959 21.2793C37.6758 21.0254 37.2461 21.0449 36.9629 21.3379Z" fill="#FF8A00"/>
<path d="M23.584 34.5117C21.4551 34.9317 19.6289 36.1524 18.457 37.959C17.5879 39.2871 17.2363 40.4883 17.2363 42.1875C17.2363 43.8867 17.5879 45.0879 18.4473 46.4063C20.8203 50.0293 25.6445 51.0742 29.2285 48.7305C32.8418 46.377 33.8867 41.5332 31.543 37.959C30.4492 36.2695 28.8867 35.1563 26.8555 34.6094C26.0938 34.3945 24.4141 34.3555 23.584 34.5117ZM26.3086 36.084C29.1309 36.6797 31.25 39.2969 31.25 42.1875C31.25 45.586 28.3984 48.4375 25 48.4375C22.6855 48.4375 20.4297 47.041 19.4434 45C18.5254 43.1055 18.5254 41.2695 19.4434 39.375C20.6445 36.8848 23.5449 35.4981 26.3086 36.084Z" fill="#FF8A00"/>
<path d="M28.1251 39.9609C27.9883 40.0098 27.1192 40.8008 26.2012 41.7285L24.5118 43.4082L23.3204 42.2168C22.6563 41.5625 22.002 40.9863 21.8653 40.9277C21.67 40.8594 21.5235 40.8691 21.2794 40.9961C20.918 41.1816 20.7911 41.5039 20.918 41.9043C20.9669 42.041 21.7188 42.8613 22.5977 43.7305C24.0137 45.1465 24.2188 45.3125 24.5118 45.3125C24.8145 45.3125 25.0391 45.1172 26.9239 43.2422C28.0665 42.1094 29.0333 41.0547 29.0919 40.918C29.2872 40.332 28.7012 39.7461 28.1251 39.9609Z" fill="#FF8A00"/>
</svg>
