<svg width="60" height="60" viewBox="0 0 60 60" fill="none" xmlns="http://www.w3.org/2000/svg">
<g clip-path="url(#clip0_101_882)">
<path d="M44.5312 0.0703125C41.4492 0.644531 40.2773 1.07812 38.2031 2.4375C37.4062 2.95312 36.2109 4.07812 32.3086 7.95703C27.5977 12.6562 27.4219 12.8438 27.4219 13.2656C27.4219 13.9453 27.8086 14.2617 28.5352 14.1797C28.6641 14.168 30.8438 12.0938 33.5742 9.38672C38.6602 4.33594 39.3516 3.75 41.1914 2.95312C45.75 0.972656 51.0234 1.95703 54.5156 5.44922C55.9922 6.92578 56.9648 8.57812 57.6211 10.7227C57.9141 11.707 57.9375 11.918 57.9375 13.9453C57.9375 15.9727 57.9141 16.1836 57.6211 17.1445C57.4453 17.707 57.1406 18.5156 56.9531 18.9492C56.1094 20.8125 55.793 21.1523 46.3242 30.5977C38.8008 38.1094 37.1836 39.668 36.4453 40.1133C34.3828 41.3672 32.8594 41.8359 30.457 41.918C28.5938 41.9883 27.5156 41.8359 25.9688 41.2969C23.7305 40.5234 21.5391 38.8359 20.1445 36.8555C19.6289 36.1172 18.6328 34.1367 18.6328 33.8438C18.6328 33.75 20.4609 31.8633 22.7109 29.6367C27.1992 25.1719 27.4453 24.9844 29.1445 24.7031C31.3945 24.3281 33.7852 25.5234 34.8047 27.5391C35.2148 28.3477 35.4141 28.5234 35.9297 28.5234C36.7617 28.5234 37.0664 27.7031 36.5859 26.7656C35.625 24.8789 33.8438 23.4492 31.8047 22.9219C30.8672 22.6758 29.1211 22.6758 28.207 22.9219C27.457 23.1094 26.3789 23.6016 25.7461 24.0352C25.2305 24.3867 8.76562 40.8164 8.20312 41.543C7.17188 42.8672 6.67969 44.3438 6.67969 46.0781C6.67969 48.1523 7.33594 49.7695 8.78906 51.2109C10.2188 52.6523 11.9297 53.3672 13.9453 53.3672C15.2109 53.3672 15.9727 53.1797 17.2266 52.5938C18.1875 52.1367 18.3516 51.9961 21.293 49.0664C23.4609 46.9102 24.3867 45.9258 24.4336 45.6797C24.5742 45.0586 23.8828 44.4141 23.2734 44.6016C23.1445 44.6484 21.7148 45.9844 20.0977 47.5781C17.9062 49.7461 17.0039 50.5547 16.5234 50.8008C14.3086 51.9258 11.8359 51.5625 10.1367 49.8633C8.41406 48.1406 8.0625 45.5156 9.28125 43.3711C9.53906 42.9141 10.7695 41.5898 13.3594 38.9766L17.0625 35.25L17.4961 36.1055C19.207 39.5508 22.1367 42.082 25.7461 43.2422C27.2461 43.7227 28.2773 43.875 30.0586 43.875C32.2969 43.8633 34.1602 43.4414 36.0938 42.4922C38.1914 41.4609 38.5664 41.1328 47.8242 31.875C52.6289 27.0703 56.7773 22.8516 57.0469 22.4883C59.2969 19.3828 60.2461 16.0664 59.8828 12.5742C59.25 6.45703 54.9141 1.62891 48.8672 0.292969C48.0234 0.105469 45.1289 -0.0351562 44.5312 0.0703125Z" fill="#FF8A00"/>
<path d="M45.3516 6.63281C44.2149 6.82031 43.6524 6.99609 42.7734 7.40625C41.8242 7.86328 41.6484 8.01562 38.6953 10.9453C37.0078 12.6211 35.5899 14.1211 35.543 14.2734C35.3906 14.8828 36.0586 15.5625 36.6445 15.4102C36.8555 15.3633 38.0391 14.2734 39.9024 12.4336C42.1055 10.2539 42.9961 9.44531 43.4766 9.19922C45.6914 8.07422 48.1641 8.4375 49.8633 10.1367C51.5859 11.8594 51.9375 14.4844 50.7188 16.6289C50.4609 17.0859 49.2305 18.4102 46.6406 21.0234L42.9258 24.7617L42.5039 23.8945C40.5586 19.8867 36.9024 17.1445 32.332 16.2773C31.3828 16.1016 28.7695 16.0898 27.7617 16.2773C25.6875 16.6289 23.6133 17.4844 21.9258 18.6914C20.6016 19.6289 3.15235 37.1484 2.42579 38.2734C0.56251 41.1328 -0.222647 44.25 0.117197 47.4727C0.761728 53.6133 5.1211 58.4062 11.25 59.7305C12.6211 60.0234 15.2695 60.0234 16.6406 59.7305C18.6328 59.3086 20.0625 58.6992 21.7969 57.5625C22.5938 57.0469 23.7891 55.9219 27.6914 52.043C32.3203 47.4258 32.5781 47.1445 32.5781 46.7461C32.5781 46.207 32.1914 45.8203 31.6406 45.8203C31.2774 45.8203 30.8672 46.1953 26.4375 50.6016C21.3281 55.6758 20.6016 56.2852 18.7852 57.0586C14.168 59.0273 8.98829 58.0547 5.4961 54.5625C4.00782 53.0742 3.03517 51.4219 2.37892 49.2773C2.08595 48.293 2.06251 48.082 2.06251 46.0547C2.06251 44.0273 2.08595 43.8164 2.37892 42.8555C2.5547 42.293 2.85938 41.4844 3.04688 41.0508C3.89063 39.1875 4.20704 38.8477 13.6758 29.4023C21.1992 21.8906 22.8164 20.332 23.5547 19.8867C25.6172 18.6328 27.1406 18.1641 29.543 18.082C31.4063 18.0117 32.4844 18.1641 34.0313 18.7031C36.2695 19.4766 38.4609 21.1641 39.8555 23.1445C40.3711 23.8828 41.3672 25.8633 41.3672 26.1562C41.3672 26.25 39.5391 28.1367 37.3008 30.3633C32.8008 34.8281 32.5547 35.0156 30.8555 35.2969C28.6055 35.6719 26.2149 34.4766 25.1953 32.4609C24.7852 31.6523 24.5859 31.4766 24.0703 31.4766C23.2383 31.4766 22.9336 32.2969 23.4141 33.2344C24.375 35.1211 26.1563 36.5508 28.1953 37.0781C29.1328 37.3242 30.8789 37.3242 31.793 37.0781C32.543 36.8906 33.6211 36.3984 34.2539 35.9648C34.7695 35.6133 51.2344 19.1836 51.7969 18.457C52.8281 17.1328 53.3203 15.6562 53.3203 13.9219C53.3203 11.8477 52.6641 10.2305 51.2109 8.78906C49.8867 7.45312 48.375 6.77344 46.4649 6.64453C46.0195 6.60938 45.5156 6.60938 45.3516 6.63281Z" fill="#FF8A00"/>
</g>
<defs>
<clipPath id="clip0_101_882">
<rect width="60" height="60" fill="white"/>
</clipPath>
</defs>
</svg>
