<svg width="60" height="60" viewBox="0 0 60 60" fill="none" xmlns="http://www.w3.org/2000/svg">
<path d="M59.6989 27.9504H56.8202V14.7081C56.8202 11.5334 54.2374 8.95063 51.0627 8.95063H47.1638L43.1738 1.77683C42.5657 0.680489 41.4085 0 40.1534 0C39.5684 0 38.9881 0.150861 38.4756 0.435205L23.163 8.95045H6.05873C2.88401 8.95045 0.30127 11.5332 0.30127 14.7079V54.2424C0.30127 57.4171 2.88401 59.9998 6.05873 59.9998H51.0627C54.2374 59.9998 56.8202 57.4171 56.8202 54.2424V42.6318H59.6989V27.9504ZM51.0627 11.2535C52.836 11.2535 54.2845 12.6007 54.4791 14.3245H50.1518L48.4452 11.2535H51.0627ZM39.596 2.448C40.136 2.14521 40.8627 2.35698 41.1609 2.89485L47.5171 14.3234H18.2393L39.596 2.448ZM54.5171 54.2424C54.5171 56.1469 52.9671 57.6969 51.0625 57.6969H6.05873C4.15415 57.6969 2.60414 56.1469 2.60414 54.2424V14.7081C2.60414 12.8035 4.15415 11.2535 6.05873 11.2535H19.0222L13.4997 14.3247H6.77845C6.14168 14.3247 5.62693 14.8405 5.62693 15.4762C5.62693 16.1119 6.14168 16.6277 6.77845 16.6277H9.35779H51.4323H54.5171V27.9515H46.0963C42.1857 27.9515 39.0031 31.1342 39.0031 35.0446V35.5399C39.0031 39.4504 42.1859 42.633 46.0963 42.633H54.5171V54.2424ZM57.3958 40.3289H56.8202H46.0963C43.4548 40.3289 41.306 38.1803 41.306 35.5386V35.0434C41.306 32.4019 43.4546 30.2531 46.0963 30.2531H56.8202H57.3958V40.3289ZM49.6233 35.3856C49.6233 36.7905 48.4855 37.928 47.0808 37.928C45.676 37.928 44.5384 36.7903 44.5384 35.3856C44.5384 33.9809 45.6761 32.8432 47.0808 32.8432C48.4857 32.843 49.6233 33.9818 49.6233 35.3856Z" fill="#FF8A00"/>
</svg>
